Format : AVI
Format/Info : Audio Video Interleave
File size : 743 MiB
Duration : 1h 44mn
Overall bit rate : 998 Kbps
Writing application : AVI-Mux GUI 1.17.8.3, Feb 16 201019:42:50
Writing library : VirtualDub build 32839/release

Video
ID : 0
Format : MPEG-4 Visual
Format profile : Advanced Simple@L5
Format settings, BVOP : Yes
Format settings, QPel : No
Format settings, GMC : No warppoints
Format settings, Matrix : Custom
Codec ID : XVID
Codec ID/Hint : XviD
Duration : 1h 44mn
Bit rate : 855 Kbps
Width : 692 pixels
Height : 294 pixels
Display aspect ratio : 2.35:1
Frame rate : 23.976 fps
Color space : YUV
Chroma subsampling : 4:2:0
Bit depth : 8 bits
Scan type : Progressive
Bits/(Pixel*Frame) : 0.175
Stream size : 637 MiB (86%)
Writing library : XviD 1.2.1 (UTC 2008-12-04)

Audio
ID : 1
Format : MPEG Audio
Format version : Version 1
Format profile : Layer 3
Mode : Joint stereo
Mode extension : MS Stereo
Codec ID : 55
Codec ID/Hint : MP3
Duration : 1h 44mn
Bit rate mode : Variable
Bit rate : 130 Kbps
Nominal bit rate : 144 Kbps
Channel(s) : 2 channels
Sampling rate : 48.0 KHz
Stream size : 96.5 MiB (13%)
Alignment : Aligned on interleaves
Interleave, duration : 24 ms (0.58 video frame)
Interleave, preload duration : 142 ms
Writing library : LAME3.98r
Encoding settings : -m j -V 4 -q 2 -lowpass 17.5 --abr 144


 
http://www.imdb.com/title/tt1334260/




As children, Ruth, Kathy and Tommy, spend their childhood at a seemingly idyllic English boarding school... See full summary »
Director:
Mark Romanek
Writers:
Kazuo Ishiguro (novel), Alex Garland (screenplay)
Stars:
Keira Knightley, Carey Mulligan and Andrew Garfield

